<?xml version="1.0" standalone="no"?>
<!DOCTYPE svg PUBLIC "-//W3C//DTD SVG 20010904//EN"
 "http://www.w3.org/TR/2001/REC-SVG-20010904/DTD/svg10.dtd">
<svg version="1.0" xmlns="http://www.w3.org/2000/svg"
 width="831.000000pt" height="831.000000pt" viewBox="0 0 831.000000 831.000000"
 preserveAspectRatio="xMidYMid meet">
<metadata>
Created by potrace 1.14, written by Peter Selinger 2001-2017
</metadata>
<g transform="translate(0.000000,831.000000) scale(0.100000,-0.100000)"
fill="#000000" stroke="none">
<path d="M3995 8221 c-170 -99 -532 -308 -585 -338 -19 -11 -94 -54 -167 -96
-72 -42 -147 -85 -165 -96 -18 -10 -116 -67 -218 -126 -102 -59 -225 -130
-275 -158 -49 -29 -97 -56 -106 -62 -9 -5 -35 -20 -58 -33 -23 -13 -87 -50
-142 -83 -55 -32 -102 -59 -104 -59 -3 0 -24 -12 -48 -27 -23 -14 -67 -40 -97
-56 -30 -16 -62 -36 -71 -43 -8 -8 -18 -14 -21 -14 -6 0 -752 -429 -1063 -610
-182 -106 -222 -130 -272 -156 l-53 -28 0 -2081 0 -2082 27 -14 c24 -12 122
-68 173 -99 17 -10 188 -108 240 -138 61 -34 732 -422 800 -462 60 -35 593
-343 685 -395 55 -32 311 -179 545 -315 107 -62 215 -124 240 -138 25 -14 124
-71 220 -127 96 -56 195 -113 220 -127 25 -14 135 -78 245 -141 l200 -116 3
2077 2 2077 63 36 c233 134 471 272 499 289 18 11 58 33 88 50 30 17 71 40 90
51 19 12 114 66 210 121 96 55 192 111 212 124 21 13 40 24 43 24 3 0 24 12
47 26 23 15 63 38 88 53 26 14 129 73 229 131 100 58 196 113 214 124 291 167
516 297 575 332 40 24 75 44 78 44 2 0 21 11 42 23 20 13 159 94 307 179 149
86 337 194 419 242 82 47 153 86 158 86 4 0 8 5 8 10 0 6 5 10 10 10 6 0 58
28 116 61 l105 62 -53 30 c-29 17 -266 153 -526 304 -261 150 -478 273 -483
273 -5 0 -9 5 -9 10 0 6 -4 10 -9 10 -5 0 -129 70 -276 155 -147 85 -270 155
-273 155 -3 0 -13 6 -21 14 -9 7 -41 27 -71 43 -100 54 -534 305 -562 324 -15
10 -29 19 -32 19 -2 0 -71 39 -153 86 -81 48 -168 98 -193 112 -25 14 -62 36
-82 49 -21 12 -40 23 -43 23 -2 0 -33 17 -67 38 -35 21 -88 52 -118 69 -30 16
-109 62 -176 101 -216 126 -430 248 -445 254 -8 3 -81 -33 -164 -81z"/>
<path d="M6425 4061 c-55 -32 -190 -110 -300 -173 -347 -201 -378 -218 -384
-218 -4 0 -12 -5 -19 -12 -6 -6 -40 -28 -75 -47 -36 -20 -112 -63 -170 -96
l-106 -60 -1 -673 c0 -536 3 -672 13 -666 6 4 28 17 47 29 19 12 60 35 90 52
30 17 170 97 310 178 140 81 275 159 299 173 24 13 103 59 175 101 72 42 142
82 156 89 14 7 35 21 48 30 l22 17 -2 667 -3 667 -100 -58z"/>
</g>
</svg>
